<svg width="32" height="28" viewBox="0 0 32 28" fill="none" xmlns="http://www.w3.org/2000/svg">
<path d="M16 26.5416C15.0667 26.5416 14.12 26.2266 13.4133 25.6083L11.1333 23.6366C10.5733 23.1466 9.80001 22.8783 9.01335 22.8783H8C5.24 22.8783 3 20.93 3 18.5383V5.80994C3 3.41827 5.24 1.46997 8 1.46997H24C26.76 1.46997 29 3.41827 29 5.80994V18.5383C29 20.93 26.76 22.8783 24 22.8783H22.9867C22.2 22.8783 21.4267 23.1583 20.8667 23.6366L18.5867 25.6083C17.88 26.2266 16.9333 26.5416 16 26.5416ZM8 3.20829C6.34667 3.20829 5 4.37492 5 5.79826V18.5266C5 19.9616 6.34667 21.1166 8 21.1166H9.01335C10.3333 21.1166 11.6133 21.5833 12.5467 22.3883L14.8267 24.36C15.48 24.92 16.5334 24.92 17.1867 24.36L19.4667 22.3883C20.4 21.5833 21.68 21.1166 23 21.1166H24C25.6533 21.1166 27 19.95 27 18.5266V5.79826C27 4.36326 25.6533 3.20829 24 3.20829H8Z" fill="#015BC1"/>
<path d="M15.9997 18.375C15.7597 18.375 15.5197 18.3399 15.3064 18.2816C13.5464 17.7566 9.01303 15.435 9.01303 11.095C9.01303 8.99497 10.9597 7.29163 13.3464 7.29163C14.3197 7.29163 15.253 7.5833 16.013 8.09663C16.773 7.5833 17.7064 7.29163 18.6797 7.29163C21.0664 7.29163 23.013 8.99497 23.013 11.095C23.013 15.435 18.4664 17.7566 16.7197 18.2816C16.4797 18.3399 16.2397 18.375 15.9997 18.375ZM13.333 9.04163C12.053 9.04163 10.9997 9.9633 10.9997 11.095C10.9997 14.3966 14.6663 16.24 15.9463 16.625C15.9597 16.625 16.013 16.625 16.053 16.625C17.3464 16.2283 20.9863 14.385 20.9863 11.1066C20.9863 9.97498 19.9463 9.0533 18.653 9.0533C17.9197 9.0533 17.2397 9.35665 16.7863 9.86998C16.413 10.3133 15.5597 10.3133 15.1864 9.86998C14.7597 9.34498 14.0797 9.04163 13.333 9.04163Z" fill="#015BC1"/>
</svg>
