<svg width="85" height="72" viewBox="0 0 85 72" fill="none" xmlns="http://www.w3.org/2000/svg">
<path fill-rule="evenodd" clip-rule="evenodd" d="M4.96151 16.0714C12.9202 5.34102 46.2789 -4.1064 50.3994 1.84197C51.3025 3.82475 50.2864 6.21589 46.9562 10.3564C46.4482 11.2895 43.3439 14.0887 50.6252 13.3888C56.3261 12.1642 65.9781 2.71677 75.235 4.99115C80.5408 5.86591 78.8475 12.2224 77.7186 18.2291C76.4204 23.8276 80.936 26.1603 78.8476 31.9921C75.6867 43.7138 84.8307 40.4481 85 45.8716C84.2662 50.6536 74.5012 48.0877 78.7346 55.7272C80.2021 57.4768 79.5248 59.6928 77.3234 62.842C75.0092 66.9242 70.776 71.4729 67.5586 71.7645C56.5519 73.1058 44.3033 68.3237 36.2317 67.3323C29.6842 65.6411 22.1206 71.7645 15.8553 71.1813C13.5411 70.948 9.13838 70.6564 8.63038 62.2004C8.23527 56.8352 5.13075 56.3687 1.85696 54.6192C-0.344386 52.6947 -1.02168 51.1201 2.25211 48.0293C4.96145 45.755 6.59831 46.688 7.50142 39.6316C8.34809 34.3248 9.36418 30.9423 9.70285 28.493C10.8882 23.4194 7.78358 22.7779 6.20313 21.145C3.8889 19.4538 3.26818 17.9959 4.96151 16.0714Z" fill="white"/>
<path fill-rule="evenodd" clip-rule="evenodd" d="M10.691 14.2046C15.1239 6.82643 43.722 1.53085 45.1816 4.38691C46.1547 6.82647 43.3434 8.78993 41.9919 12.479C41.0729 14.6211 40.8568 16.8227 43.9923 16.5252C45.7222 16.5847 50.6417 14.3235 54.0475 12.836C56.6964 11.765 61.3456 8.96841 64.1568 8.5519C69.4006 7.71888 73.7797 10.932 72.2119 18.6076C71.5091 22.0587 74.4824 24.1413 74.5365 28.7229C74.6986 29.8535 74.6446 34.4946 72.3741 33.5425C68.3736 31.7575 61.5078 25.1528 58.967 23.2487C52.5338 17.2986 46.7493 28.1874 44.0462 31.46C41.6135 34.6135 40.7485 38.3621 31.0176 28.1279C26.3684 23.4273 24.4763 27.8305 22.7464 29.318C20.4218 31.5195 14.5833 37.7672 13.0697 38.6002C9.55572 41.9918 10.6368 35.8036 10.9612 34.1376C11.3937 31.5195 12.9074 27.1164 13.1777 24.8554C13.9346 20.8093 9.23134 16.7632 10.691 14.2046Z" fill="#00AEEF"/>
<path fill-rule="evenodd" clip-rule="evenodd" d="M5.63582 49.6741C10.4115 43.2816 21.536 36.0756 24.7946 32.8794C29.0084 28.6952 30.2445 30.9615 33.5593 33.8672C36.1438 35.9012 37.2675 38.2258 41.088 40.3179C45.1333 42.6425 45.4704 39.0976 47.2683 36.1919C49.2347 31.7171 50.527 27.8235 52.5496 26.3707C53.7295 25.6733 55.415 23.4649 60.4716 27.8815C65.9776 32.24 75.0234 38.4001 77.2145 41.8869C77.664 42.7586 83.6757 47.1753 75.6414 48.6863C69.4049 50.2554 53.1114 55.4856 44.2343 55.6018C38.1102 55.7762 36.5372 57.0546 37.3238 49.9066C37.717 45.7806 32.5481 46.0711 25.5251 47.8726C25.5251 47.8726 15.8052 50.4877 11.7038 52.2311C6.25394 53.7421 4.23122 51.8824 5.63582 49.6741Z" fill="#00A651"/>
<path fill-rule="evenodd" clip-rule="evenodd" d="M11.2082 60.8805C9.47557 55.9257 10.7208 56.4974 13.3738 55.354C18.0301 54.1471 26.9637 50.0179 29.7792 50.4626C31.1869 50.7167 33.6233 49.1286 32.9736 53.8293C32.7029 56.5608 31.9991 58.9748 36.0598 58.2761C50.1911 58.149 66.3258 54.6551 68.3832 53.8293C70.4948 52.94 75.0429 51.0344 74.5556 56.688C74.0141 63.9932 70.6571 69.0115 68.329 69.5832C55.2264 72.8864 45.643 61.5792 31.0786 67.1057C24.9604 68.6303 14.7816 71.489 11.2082 60.8805Z" fill="#124E91"/>
<path fill-rule="evenodd" clip-rule="evenodd" d="M27.1494 10.8003C31.0043 10.8003 34.6939 13.9063 34.6939 16.8366C34.6939 19.7082 30.7839 23.4003 26.9291 23.4003C23.1293 23.4003 20.8163 19.4737 20.8163 16.6021C20.8163 13.6133 23.2946 10.8003 27.1494 10.8003Z" fill="white"/>
<path fill-rule="evenodd" clip-rule="evenodd" d="M28.6225 12.6001C31.0122 12.6001 32.9592 15 32.9592 18C32.9592 21 31.0122 23.4001 28.6225 23.4001C26.2329 23.4001 24.2857 20.94 24.2857 18C24.2857 15 26.2329 12.6001 28.6225 12.6001Z" fill="#FFCB05"/>
</svg>
